<svg xmlns="http://www.w3.org/2000/svg" xmlns:xlink="http://www.w3.org/1999/xlink" width="500" zoomAndPan="magnify" viewBox="0 0 375 374.999991" height="500" preserveAspectRatio="xMidYMid meet" version="1.0"><defs><clipPath id="17f5ca9e07"><path d="M 10.339844 54 L 363 54 L 363 319 L 10.339844 319 Z M 10.339844 54 " clip-rule="nonzero"/></clipPath></defs><rect x="-37.5" width="450" fill="#ffffff" y="-37.499999" height="449.999989" fill-opacity="1"/><rect x="-37.5" width="450" fill="#ffffff" y="-37.499999" height="449.999989" fill-opacity="1"/><g clip-path="url(#17f5ca9e07)"><path fill="#ffffff" d="M 27.945312 72.507812 C 14.742188 85.714844 10.339844 113.222656 10.339844 192.449219 C 10.339844 283.777344 12.539062 298.082031 31.246094 307.988281 C 59.855469 322.292969 312.9375 322.292969 341.546875 307.988281 C 360.253906 298.082031 362.453125 283.777344 362.453125 192.449219 C 362.453125 52.703125 364.65625 54.902344 186.398438 54.902344 C 71.960938 54.902344 41.148438 58.203125 27.945312 72.507812 Z M 340.449219 91.214844 C 340.449219 100.019531 306.335938 129.726562 263.421875 159.4375 L 186.398438 212.253906 L 109.371094 159.4375 C 66.457031 129.726562 32.347656 100.019531 32.347656 91.214844 C 32.347656 80.210938 65.355469 76.910156 186.398438 76.910156 C 307.4375 76.910156 340.449219 80.210938 340.449219 91.214844 Z M 120.375 196.851562 C 120.375 200.152344 100.570312 217.757812 76.359375 234.261719 L 32.347656 265.074219 L 32.347656 131.929688 L 76.359375 160.539062 C 100.570312 177.042969 120.375 192.449219 120.375 196.851562 Z M 340.449219 199.050781 L 340.449219 265.074219 L 296.433594 234.261719 C 272.226562 217.757812 252.417969 200.152344 252.417969 196.851562 C 252.417969 191.347656 327.242188 135.230469 338.246094 133.03125 C 339.347656 131.929688 340.449219 161.640625 340.449219 199.050781 Z M 211.707031 222.160156 C 222.707031 212.253906 240.316406 218.859375 285.429688 250.769531 L 343.75 291.480469 L 265.625 294.78125 C 221.609375 296.984375 151.183594 296.984375 107.171875 294.78125 L 29.046875 291.480469 L 86.265625 250.769531 C 136.878906 216.65625 147.882812 212.253906 170.992188 222.160156 C 189.699219 230.960938 200.703125 230.960938 211.707031 222.160156 Z M 211.707031 222.160156 " fill-opacity="1" fill-rule="nonzero"/></g></svg>